<svg width="20" height="21" viewBox="0 0 20 21" fill="none" xmlns="http://www.w3.org/2000/svg">
<path d="M17.5 9.66665V8.83331H16.6666V7.99998H15V7.16665H13.3333V6.33331H12.5V5.49998H10.8333V4.66665H9.16663V3.83331H8.33329V2.99998H6.66663V2.16665H4.99996V1.33331H2.49996V2.16665H1.66663V18.8333H2.49996V19.6666H4.99996V18.8333H6.66663V18H8.33329V17.1666H9.16663V16.3333H10.8333V15.5H12.5V14.6666H13.3333V13.8333H15V13H16.6666V12.1666H17.5V11.3333H18.3333V9.66665H17.5ZM15.8333 11.3333H14.1666V12.1666H12.5V13H11.6666V13.8333H9.99996V14.6666H8.33329V15.5H7.49996V16.3333H5.83329V17.1666H4.16663V18H3.33329V2.99998H4.16663V3.83331H5.83329V4.66665H7.49996V5.49998H8.33329V6.33331H9.99996V7.16665H11.6666V7.99998H12.5V8.83331H14.1666V9.66665H15.8333V11.3333Z" fill="black"/>
</svg>
